PathFileType	4	(X/Y/Z)	P:\Projects\LMB_grand_challenge_database\project_only\opensim\experimental_data\SixthCompetition/DM_ngait_og5_new.trc
DataRate	CameraRate	NumFrames	NumMarkers	Units	OrigDataRate	OrigDataStartFrame	OrigNumFrames
120	120	8	68	mm	120	213	342
Frame#	Time	Sternum			Neck			R_Shoulder			L_Shoulder			Xiphoid			Thoracic			R_Asis			L_Asis			R_Psis			L_Psis			Lumbar			R_Elbow			R_ElbowMedial			R_ShoulderAnterior			R_ShoulderPosterior			R_Wrist			R_Radius			R_Ulna			L_Elbow			L_ElbowMedial			L_ShoulderAnterior			L_ShoulderPosterior			L_Wrist			L_Ulna			L_Radius			L_Thigh_Superior			L_Thigh_Inferior			L_Thigh_Lateral			L_Knee_Lateral			L_Knee_Medial			L_Patella			L_Shank_Superior			L_Shank_Inferior			L_Shank_Lateral			L_Ankle_Lateral			L_Ankle_Medial			R_Thigh_Superior			R_Thigh_Inferior			R_Thigh_Lateral			R_Knee_Lateral			R_Knee_Medial			R_Patella			R_Shank_Superior			R_Shank_Inferior			R_Shank_Lateral			R_Ankle_Lateral			RankleMedial			R_Heel			R_Toe			R_Midfoot_Medial			R_Midfoot_Lateral			R_Hindfoot			R_Midfoot_Superior			R_ToeMedial			R_ToeLateral			L_Heel			L_Toe			L_Midfoot_Medial			L_Midfoot_Lateral			L_Hindfoot			L_Midfoot_Superior			L_ToeMedial			L_ToeLateral			Oglobal			Sacral			Xglobal			Yglobal			Zglobal			
		X1	Y1	Z1	X2	Y2	Z2	X3	Y3	Z3	X4	Y4	Z4	X5	Y5	Z5	X6	Y6	Z6	X7	Y7	Z7	X8	Y8	Z8	X9	Y9	Z9	X10	Y10	Z10	X11	Y11	Z11	X12	Y12	Z12	X13	Y13	Z13	X14	Y14	Z14	X15	Y15	Z15	X16	Y16	Z16	X17	Y17	Z17	X18	Y18	Z18	X19	Y19	Z19	X20	Y20	Z20	X21	Y21	Z21	X22	Y22	Z22	X23	Y23	Z23	X24	Y24	Z24	X25	Y25	Z25	X26	Y26	Z26	X27	Y27	Z27	X28	Y28	Z28	X29	Y29	Z29	X30	Y30	Z30	X31	Y31	Z31	X32	Y32	Z32	X33	Y33	Z33	X34	Y34	Z34	X35	Y35	Z35	X36	Y36	Z36	X37	Y37	Z37	X38	Y38	Z38	X39	Y39	Z39	X40	Y40	Z40	X41	Y41	Z41	X42	Y42	Z42	X43	Y43	Z43	X44	Y44	Z44	X45	Y45	Z45	X46	Y46	Z46	X47	Y47	Z47	X48	Y48	Z48	X49	Y49	Z49	X50	Y50	Z50	X51	Y51	Z51	X52	Y52	Z52	X53	Y53	Z53	X54	Y54	Z54	X55	Y55	Z55	X56	Y56	Z56	X57	Y57	Z57	X58	Y58	Z58	X59	Y59	Z59	X60	Y60	Z60	X61	Y61	Z61	X62	Y62	Z62	X63	Y63	Z63	X64	Y64	Z64	X65	Y65	Z65	X66	Y66	Z66	X67	Y67	Z67	X68	Y68	Z68	

214	3.391667	511.268	1447.16	140.812	663.2140000000001	1352.97	146.198	590.3579999999999	1388.97	316.098	584.728	1399.01	-27.1173	673.778	1189.06	152.903	411.492	1258.53	138.125	582.247	959.008	281.156	607.701	973.3819999999999	7.0645	390.71	1007.75	159.113	396.135	1006.14	79.7829	395.165	1056.38	124.39	493.845	1089.92	420.108	-0	0	0	-0	0	0	-0	0	0	548.311	814.413	421.122	561.04	824.647	380.455	500.719	819.231	420.182	686.595	1083.68	-113.665	-0	0	0	-0	0	0	-0	0	0	882.658	904.621	-73.8182	843.259	886.024	-91.0792	868.7670000000001	920.043	-31.1571	516.039	795.181	-19.8819	489.808	577.381	37.6998	557.7140000000001	658.624	57.4777	-0	0	0	-0	0	0	491.848	480.843	106.893	413.034	433.503	36.2376	308.125	182.258	45.9476	388.608	292.331	112.967	-0	0	0	-0	0	0	518.899	780.759	310.287	621.099	587.583	280.377	634.529	727.811	298.213	-0	0	0	-0	0	0	734.976	537.081	223.741	671.506	391.517	294.714	775.574	208.268	287.526	779.48	351.747	223.267	-0	0	0	-0	0	0	773.563	56.6746	229.52	1043.57	182.777	253.96	986.526	134.631	192.296	975.073	113.891	307.149	878.22	64.1413	286.975	893.081	179.602	250.446	1020.23	160.747	206.785	1013.21	146.28	297.876	202.721	67.48820000000001	102.562	502.185	51.8012	96.9614	421.325	33.6229	149.818	408.408	31.2022	36.0925	300.472	28.9278	45.639	369.594	120.059	94.684	464.626	35.2925	140.684	463.603	35.1547	45.4042	-0	0	0	393.422	1006.94	119.448	-200	0	0	-0	0	200	-0	200	0	
215	3.4	520.393	1445.55	141.709	672.103	1351.31	147.205	599.255	1386.92	317.207	593.98	1397.64	-26.2336	682.596	1187.39	153.365	420.241	1257.19	138.537	591.112	957.648	281.983	616.7329999999999	972.004	7.68604	399.576	1005.75	159.685	405.074	1004.18	80.40089999999999	403.866	1054.42	124.943	501.84	1087.94	420.831	-0	0	0	-0	0	0	-0	0	0	555.399	812.079	421.193	567.938	822.506	380.992	508.334	817.0309999999999	420.645	697.111	1082.25	-111.643	-0	0	0	-0	0	0	-0	0	0	893.999	904.324	-71.1075	854.783	885.501	-88.277	879.963	919.898	-28.5095	524.2859999999999	793.97	-19.4789	495.725	576.4349999999999	38.2872	564.588	657.062	57.7448	-0	0	0	-0	0	0	496.804	479.033	107.02	417.357	433.019	36.3196	309.542	183.133	45.6505	391.563	292.26	113.151	-0	0	0	-0	0	0	530.602	779.8680000000001	310.789	633.9349999999999	587.355	279.995	646.822	727.848	297.055	-0	0	0	-0	0	0	747.03	537.085	222.366	684.551	391.461	294.218	786.8440000000001	207.601	286.365	790.936	350.777	221.547	-0	0	0	-0	0	0	783.564	55.9678	228.056	1054.1	180.617	250.616	996.681	132.961	189.721	985.634	112.569	304.676	888.355	63.0163	285.023	903.451	178.242	248.112	1030.27	158.622	203.6	1023.7	144.548	294.978	203.21	68.6108	102.238	502.429	50.8022	97.57210000000001	421.641	33.9883	149.742	408.766	31.1405	36.0223	300.597	29.2881	45.5189	370.642	120.516	94.20099999999999	464.781	34.9561	140.597	463.369	35.1817	45.0599	-0	0	0	402.325	1004.97	120.043	-200	0	0	-0	0	200	-0	200	0	
216	3.408333	529.42	1443.95	142.513	681.115	1349.65	148.17	607.9400000000001	1384.84	318.122	603.649	1396.16	-25.185	691.417	1185.69	153.886	429.352	1255.7	139.101	600.559	956.073	282.284	625.804	970.799	8.388730000000001	408.697	1003.88	160.393	414.084	1002.36	81.1936	412.88	1052.56	125.772	509.979	1085.85	421.495	-0	0	0	-0	0	0	-0	0	0	562.745	809.672	421.759	574.974	820.306	381.005	515.448	815.027	421.259	707.467	1080.85	-109.634	-0	0	0	-0	0	0	-0	0	0	904.893	903.7809999999999	-68.4175	866.001	884.824	-85.455	891.0940000000001	919.4450000000001	-25.8029	532.337	792.662	-18.8667	501.728	575.6900000000001	38.7489	569.827	655.727	58.7781	-0	0	0	-0	0	0	501.838	477.267	107.345	421.901	432.582	36.4764	311.18	183.751	45.4173	394.233	292.032	112.931	-0	0	0	-0	0	0	542.705	779.2619999999999	311.211	646.587	587.182	279.651	659.378	728.109	296.038	-0	0	0	-0	0	0	759.28	537.221	221.265	696.899	391.486	293.62	797.039	206.606	284.966	802.032	349.561	219.768	-0	0	0	-0	0	0	791.6900000000001	54.8702	226.785	1063.41	177.129	247.328	1005.41	129.567	187.264	994.568	109.946	302.372	896.694	61.1378	283.354	912.925	176.186	245.73	1039.31	155.082	200.57	1033.05	141.514	291.956	203.877	70.07680000000001	101.713	502.412	50.7905	96.74209999999999	421.982	34.3503	149.894	409.361	31.087	36.1562	300.743	29.7383	45.3745	371.519	120.905	93.8616	465.013	34.7699	140.516	463.388	34.8968	44.969	-0	0	0	411.39	1003.12	120.793	-200	0	0	-0	0	200	-0	200	0	
217	3.416667	538.576	1442.43	143.419	690.075	1348.03	149.176	616.673	1382.89	319.216	613.119	1394.85	-24.2193	700.403	1184.08	154.523	438.336	1254.4	139.759	610.035	955.0890000000001	282.986	634.866	969.004	9.02932	417.875	1002.13	161.26	423.195	1000.56	81.9926	421.982	1050.79	126.453	518.25	1083.92	422.398	-0	0	0	-0	0	0	-0	0	0	569.956	807.454	422.351	582.2809999999999	817.422	381.471	522.822	813.025	421.859	717.715	1079.46	-107.393	-0	0	0	-0	0	0	-0	0	0	915.765	903.154	-65.50279999999999	876.818	883.972	-82.56399999999999	901.884	918.888	-23.096	540.455	791.3579999999999	-18.3538	508.091	574.74	39.3067	576.437	654.269	59.3146	-0	0	0	-0	0	0	507.416	475.827	107.004	426.362	432.304	36.6292	312.762	184.715	45.2261	397.164	291.698	112.647	-0	0	0	-0	0	0	554.7910000000001	778.7859999999999	311.86	659.842	587.015	278.848	672.103	728.191	295.018	-0	0	0	-0	0	0	771.8049999999999	537.5839999999999	219.853	708.787	391.526	292.949	806.259	205.173	283.41	812.338	347.809	217.661	-0	0	0	-0	0	0	798.561	53.2694	225.248	1071.63	172.674	244.271	1012.95	125.436	184.699	1002.25	106.552	299.944	903.495	58.7726	281.279	921.22	173.429	243.193	1047.05	150.52	197.829	1040.89	137.771	289.332	204.358	71.68559999999999	101.693	502.44	50.559	96.4966	422.302	34.4139	149.431	409.411	31.152	35.7236	301.012	30.4527	45.0138	372.759	121.41	93.4178	465.184	34.443	140.367	463.534	34.6346	44.8945	-0	0	0	420.535	1001.34	121.626	-200	0	0	-0	0	200	-0	200	0	
218	3.425	547.797	1441.09	144.37	699.253	1346.42	150.337	625.427	1380.81	320.227	622.925	1393.44	-23.0616	709.647	1182.64	155.267	447.623	1253.14	140.417	619.557	953.702	283.899	644.1900000000001	967.761	9.742279999999999	427.229	1000.42	162.316	432.522	998.836	82.914	431.216	1049.09	127.431	526.716	1081.92	422.979	-0	0	0	-0	0	0	-0	0	0	577.624	805.169	422.565	590.168	815.472	381.997	530.447	810.956	422.465	727.861	1078.05	-105.385	-0	0	0	-0	0	0	-0	0	0	926.383	902.408	-62.7996	887.371	883.203	-79.9096	912.372	917.991	-20.2716	548.6	790.211	-18.0946	514.524	573.8440000000001	39.72	583.3150000000001	652.7089999999999	59.8257	-0	0	0	-0	0	0	512.9930000000001	474.047	107.016	431.494	432.189	36.653	314.623	185.722	45.1116	400.989	291.473	113.314	-0	0	0	-0	0	0	566.978	778.413	312.647	672.919	586.694	278.464	685.15	727.994	294.169	-0	0	0	-0	0	0	784.027	537.154	217.989	720.361	391.104	292.111	814.681	203.371	281.749	822.0650000000001	345.757	215.702	-0	0	0	-0	0	0	804.361	51.5025	223.577	1078.77	167.744	241.352	1019.39	121.132	181.997	1008.86	102.911	297.364	909.366	56.0214	279.199	928.365	170.385	240.553	1053.87	145.677	194.936	1047.75	133.365	286.687	205.042	73.6769	101.536	502.766	50.1109	96.6203	422.639	34.6623	149.46	409.74	31.0785	35.764	301.377	31.2092	44.902	374.004	121.914	93.098	465.232	34.043	140.698	463.662	34.408	44.8139	-0	0	0	429.876	999.629	122.615	-200	0	0	-0	0	200	-0	200	0	
219	3.433333	557.136	1439.8	145.439	708.626	1344.84	151.694	634.547	1379	321.46	632.486	1392.38	-21.9266	718.978	1181.27	156.118	457.018	1251.76	141.19	629.765	952.596	284.5	653.665	966.383	10.3838	436.978	998.808	163.453	442.11	997.245	83.9777	440.86	1047.48	128.465	535.747	1080.02	423.734	-0	0	0	-0	0	0	-0	0	0	585.129	802.957	423.123	597.231	813.215	382.202	538.0599999999999	809.11	423.13	737.917	1076.57	-102.954	-0	0	0	-0	0	0	-0	0	0	936.599	901.347	-60.1263	897.728	882.042	-77.121	922.579	917.013	-17.927	556.721	789.29	-17.7472	521.348	572.972	39.8667	590.499	651.4400000000001	59.9171	-0	0	0	-0	0	0	519.225	472.448	106.758	436.736	432.355	36.4277	316.371	186.875	45.1209	405.077	291.304	113.518	-0	0	0	-0	0	0	579.258	777.978	313.213	685.756	586.1660000000001	277.838	697.823	727.752	293.392	-0	0	0	-0	0	0	796.272	537.091	216.815	731.194	390.717	291.041	821.95	201.518	279.753	831.428	343.511	213.611	-0	0	0	-0	0	0	808.199	51.7356	222.057	1085.33	160.387	237.827	1025.07	114.814	179.604	1014.05	98.4395	295.202	913.535	53.8453	277.88	935.1559999999999	167.082	237.436	1059.8	138.625	191.909	1053.43	127.728	283.644	205.772	75.9558	101.316	503.086	49.7658	96.7811	422.9	34.6488	149.45	410.041	31.0461	35.75	301.739	32.196	44.6698	375.22	122.335	92.9337	465.503	33.7912	140.66	464.015	34.1117	44.7835	-0	0	0	439.544	998.027	123.715	-200	0	0	-0	0	200	-0	200	0	
220	3.441667	566.399	1438.56	146.578	717.955	1343.68	152.727	643.276	1377.24	322.579	642.388	1391.39	-20.5548	728.601	1180.23	157.039	466.477	1250.36	142.04	640.46	951.692	284.935	663.308	965.273	10.9728	447.009	997.173	164.677	451.846	995.6559999999999	85.03619999999999	450.7	1045.86	129.619	544.46	1078.27	424.441	-0	0	0	-0	0	0	-0	0	0	593.049	800.736	423.368	604.789	810.953	382.452	545.9930000000001	807.302	423.707	747.936	1075.37	-100.578	-0	0	0	-0	0	0	-0	0	0	946.617	900.231	-57.5718	907.814	880.701	-74.2197	932.629	915.886	-15.2452	565.101	788.324	-17.2458	528.403	572.269	39.8664	598.126	650.198	59.5178	-0	0	0	-0	0	0	525.811	470.844	106.776	442.271	431.63	37.1859	318.345	188.238	45.09	408.821	291.431	113.332	-0	0	0	-0	0	0	591.774	777.268	313.524	698.4059999999999	585.5	276.861	710.428	726.918	292.694	-0	0	0	-0	0	0	807.644	536.427	214.925	741.577	389.972	289.747	828.732	199.377	277.764	840.385	341.081	211.591	-0	0	0	-0	0	0	810.397	52.1588	220.766	1091.38	150.961	233.777	1029.29	106.595	176.731	1018.03	92.5812	292.616	915.919	51.253	276.364	941.271	162.867	233.861	1064.62	129.216	188.367	1058.31	120.16	280.257	206.869	78.5556	101.162	503.492	49.4607	96.71550000000001	423.411	34.4968	149.495	410.556	30.7953	35.7971	302.243	33.4399	44.7025	376.763	122.631	92.75660000000001	465.811	33.58	140.684	464.216	33.7818	44.9482	-0	0	0	449.428	996.415	124.857	-200	0	0	-0	0	200	-0	200	0	
221	3.45	575.769	1437.46	148.015	727.251	1342.55	154.058	652.45	1375.78	323.914	651.943	1390.55	-19.0864	738.3440000000001	1179.31	158.04	476.117	1249.03	142.827	651.4059999999999	950.7619999999999	285.36	673.182	964.413	11.6933	457.268	995.6319999999999	166	461.814	994.148	86.28440000000001	460.765	1044.32	130.931	553.4450000000001	1076.5	425.246	-0	0	0	-0	0	0	-0	0	0	600.9640000000001	798.654	423.718	612.36	808.885	382.85	553.8049999999999	805.366	424.468	757.972	1074.37	-98.2547	-0	0	0	-0	0	0	-0	0	0	956.322	898.965	-54.838	917.3200000000001	879.549	-71.6623	942.453	914.817	-12.5971	573.46	787.607	-17.0003	535.86	571.62	39.846	605.903	649.174	59.4634	-0	0	0	-0	0	0	532.726	469.505	106.427	448.113	431.513	37.3819	320.452	189.751	45.0506	413.048	291.301	113.092	-0	0	0	-0	0	0	604.172	776.251	313.818	710.532	584.601	276.061	722.001	725.885	292.108	-0	0	0	-0	0	0	818.812	535.828	213.468	751.268	389.138	288.605	834.52	196.969	275.714	848.5599999999999	338.658	209.679	-0	0	0	-0	0	0	812.5170000000001	52.596	219.775	1096.94	140.463	229.481	1033.16	97.4537	173.717	1021.99	85.96210000000001	289.887	917.927	48.1895	274.872	947.153	157.721	230.201	1069.04	118.966	184.885	1063	111.913	276.771	208.052	81.53360000000001	100.845	503.932	49.1114	96.6242	423.302	32.1858	149.831	410.754	29.0041	36.0831	302.732	34.6496	44.8825	376.329	120.9	93.2239	466.012	33.3422	140.699	464.528	33.517	44.9505	-0	0	0	459.541	994.89	126.142	-200	0	0	-0	0	200	-0	200	0	
